inDegrees=yes
name=greeting_output.mot
DataType=double
version=3
OpenSimVersion=4.5
endheader
time	pelvis_tilt	pelvis_list	pelvis_rotation	pelvis_tx	pelvis_ty	pelvis_tz	hip_flexion_r	hip_adduction_r	hip_rotation_r	knee_angle_r	knee_angle_r_beta	ankle_angle_r	subtalar_angle_r	mtp_angle_r	hip_flexion_l	hip_adduction_l	hip_rotation_l	knee_angle_l	knee_angle_l_beta	ankle_angle_l	subtalar_angle_l	mtp_angle_l	lumbar_extension	lumbar_bending	lumbar_rotation	arm_flex_r	arm_add_r	arm_rot_r	elbow_flex_r	pro_sup_r	wrist_flex_r	wrist_dev_r	arm_flex_l	arm_add_l	arm_rot_l	elbow_flex_l	pro_sup_l	wrist_flex_l	wrist_dev_l
1.423076923076922	-28.20950008137597	-6.287148967051968	164.4856331847656	0	0.93	0	-25.23026456147435	-12.4443593075358	-1.636115021727162	1.156110971989561	0.02017794297964978	-4.619767942059163	0	0	-27.27165652163686	12.28655254790069	8.115095247600491	0.1132599953083918	0.001976759828924768	-4.619767942117275	0	0	0	0	0	0	0	1.735280441989479	7.54904979907245e-39	0	0	0	0	0	0.8306277468736325	0	2.260000829384397e-38	0	0
1.442307692307692	-24.11837437431501	-1.176681065763814	165.7806634371532	0	0.93	0	-22.50547944260139	-6.864905351103257	-0.3084649920626618	0.9112831188148496	0.01590489084116181	-4.64396828049986	1.575058549876364e-17	8.240532028046848e-17	-23.64363345291711	6.221587414393067	3.063385060416099	0.2117323160139281	0.003695426047316161	-4.643968280512524	2.388721464190362e-17	-4.850921928430665e-17	-5.27266134668056e-26	8.107652921540598e-23	5.057553179370766e-26	4.771878371483323e-22	-2.306429720735677e-22	-31.07186809792747	4.775681247572825e-14	0	-1.821993373091335e-20	2.675863168477514e-20	-1.30974160135335e-13	6.996655577994317e-14	0.6018561432532772	1.550858885652826e-14	2.904799220616224e-14	4.78328901475417e-20	-1.047555646283716e-19
1.461538461538461	-22.99293782202321	-1.183065788652924	165.9379588023338	0	0.93	0	-21.44359810301986	-6.451936576476808	-0.4035365050032488	0.7684603460215965	0.01341216320909177	-4.665590998143946	0	0	-22.47398204107926	5.908576004139413	5.147872509366608	0.161222299314161	0.002813859950667906	-4.665590998156897	0	0	0	0	0	0	0	-67.96028408775521	0	1.567952938224282e-38	0	0	0	0	0.9828385618156341	0	2.285841544925462e-38	0	0
1.48076923076923	-4.751734721844636	-20.55571577641248	165.3195455124669	0	0.93	0	1.465633624256503	-20.9088060656307	-0.742209341457992	1.108284221537273	0.01934320871372766	-4.811686413455855	0	0	0.9340301061564513	21.10077693793409	1.155708144633547	0.3545191213769562	0.0061875259293053	-4.811686413464775	0	0	0	0	0	0	0	-9.788283321866126	0	0	0	0	0	0	0.7921045228692518	0	0	0	0
1.499999999999999	-9.906072168779161	-22.43357091441141	164.4007278863079	0	0.93	0	-2.62910446299846	-24.01115680345484	-0.6950238904833784	1.290538932778456	0.02252415350215782	-4.818517204591948	0	0	-4.282340476179179	24.8615981238975	5.84220760975796	0.1512533182022084	0.002639868407195207	-4.818517204600544	0	0	0	0	0	0	0	-23.43444078811623	7.972153821411108e-39	0	0	0	0	0	0.7368797881149941	0	0	0	0
1.519230769230768	-8.375598819101553	21.7032544382303	167.8591785458653	0	0.93	0	-12.31336147587935	19.01135318344974	2.534276454094805	0.8000833052549077	0.01396408796693699	-4.887157881127298	0	0	-14.03919121237095	-17.96143250728381	2.786668189615262	0.1097886911358171	0.001916174141775121	-4.887157881132588	0	0	0	0	0	0	0	28.8340146563235	4.401923194427138e-39	0	0	0	0	0	-0.4681080812137728	0	1.575486514636306e-38	0	0
1.538461538461537	-13.78063626639215	19.74479134980332	168.2988062044483	0	0.93	0	-17.60977848640934	15.55260577450305	3.560027452823471	0.5973261645964498	0.01042530828051763	-4.890219611960935	0	0	-17.86138191673219	-14.97048216391019	-3.022632808175737	0.7165937984362513	0.01250692118208518	-4.890219611966089	0	0	0	0	0	0	0	31.91316419816866	9.143866606712825e-39	0	0	0	0	0	0.1135300304035445	0	0	0	0
1.557692307692307	-8.13223364642081	18.29467529094619	167.2845871213538	0	0.93	0	-12.24474431512177	15.25331118134237	1.996379141267255	0.6491456535203506	0.01132972897894044	-4.897097208856231	0	0	-12.53793592353756	-14.83851953247607	-0.162880208156844	0.2461048395570599	0.004295339755363078	-4.897097209016567	0	0	0	0	0	0	0	-4.231361812005906	9.268969752747496e-41	0	0	0	0	0	0.106118488525858	8.218919861545755e-39	1.3077910696791e-40	0	0
1.576923076923076	-7.674826124454494	22.65026856293638	167.5542269614481	0	0.93	0	-13.23576744152595	19.53258352332491	1.77681125152345	0.5491305348303164	0.009584135856026422	-4.898150660994814	0	0	-13.33506422542555	-19.25358274637743	1.634662669611536	0.1531964105827109	0.00267378176690539	-4.898150661142498	0	0	0	0	0	0	0	-11.04649041291663	9.302391678370622e-39	0	0	0	0	0	-0.30334153394547	0	0	0	0
1.596153846153845	-22.38273189384952	8.479371902961008	167.6612128217886	0	0.93	0	-23.45114422321248	2.698427796087438	0.7284253026738144	0.789498744939564	0.01377935253955831	-4.909596636896543	0	0	-24.22223054025713	-2.40149872176287	5.003429426603296	0.1229937760647822	0.002146646351791043	-4.909596637027599	0	0	0	0	0	0	0	-1.870014129641679	0	1.349457764827335e-39	0	0	0	0	-0.5098430931614811	5.244511249476196e-39	0	0	0
1.615384615384614	-28.06659196709965	-1.247817026701898	165.6155045620333	0	0.93	0	-26.44964987926436	-7.797002727533521	-2.153408528491396	1.248515415590842	0.02179070476396554	-4.915600375577383	0	0	-26.71127977822645	7.795537282377428	1.93409796231016	0.7100335851764166	0.01239242386106807	-4.915600375710066	0	0	0	0	0	0	0	10.51873043725068	1.162522223255463e-40	2.932317479667259e-41	0	0	0	0	-0.1129654814128912	0	0	0	0
1.634615384615383	-29.64826489124486	-9.248217456117427	163.5680185978984	0	0.93	0	-26.14964443037895	-15.68242321130449	-3.60890368670848	0.9453115902366013	0.01649879970689217	-4.919595552074768	0	0	-26.14920050304766	15.46954597027957	4.739942441346715	0.8775600332499015	0.01531631196412169	-4.919595552232102	0	0	0	0	0	0	0	25.7688304598307	0	1.052358365562726e-38	0	0	0	0	0.4158226351999421	6.478735741524497e-39	0	0	0
1.653846153846152	-26.57155156377244	-18.09941892878571	162.02017742452	0	0.93	0	-20.71568592437922	-23.51586308471095	-4.810256394575439	1.352129070326122	0.02359910418912079	-4.923150535143788	0	0	-21.53017062498446	22.92084715315056	7.2278590318993	0.3896614774666572	0.006800875749978862	-4.923150535294162	0	0	0	0	0	0	0	48.46810422722489	0	0	0	0	0	0	0.7250376057966778	3.274024695558921e-39	0	0	0
1.673076923076922	-29.93340469452121	2.022469368854004	166.5343902150968	0	0.93	0	-28.7011976654438	-4.799308699538021	-1.42622642506062	1.216856492858938	0.02123815232465933	-4.935002591081793	0	0	-29.62366933823658	4.349877351774291	4.790274975046556	0.2092096748729913	0.003651397653560548	-4.935002591200349	0	0	0	0	0	0	0	-2.881372197293188	0	0	0	0	0	0	0.7450558679381072	0	0	0	0
1.692307692307691	-17.59873067084468	15.85642859678778	168.5377355323563	0	0.93	0	-20.01106682257089	11.29094762201562	2.230943622198787	0.9511398201538439	0.0166005215085113	-4.947928729828944	0	0	-21.3988881340588	-11.73389805677183	1.486451167767353	0.1697415060380806	0.002962548157658341	-4.947928729943636	0	0	0	0	0	0	0	-78.13167891164012	0	5.803477712734615e-39	0	0	0	0	0.9397839487817966	0	0	0	0
1.71153846153846	-19.97660215545873	-4.763753023930605	156.1343889554236	0	0.93	0	-15.7369973988227	-12.17312109698237	8.054762088869973	1.137219205197371	0.01984821944760713	-4.953708288233893	0	0	-17.35305589806191	11.81959852942917	-4.08219213921096	0.1493976479714279	0.002607480851836844	-4.953708288335863	0	0	0	0	0	0	0	-89.98356865441278	3.912904290282789e-39	9.454966448768071e-40	0	0	0	0	-8.594759597049912	0	0	0	0
1.730769230769229	-13.14636067349542	-1.214524599946282	165.9754968077935	0	0.93	0	-11.41458999936151	-4.604249492105942	0.08867864836789542	1.12898216236647	0.01970445592958011	-4.962843015676597	0	0	-12.90696839684966	4.195033584726797	5.381502420948863	0.1429767781589743	0.002495415532767618	-4.962843015751523	0	0	0	0	0	0	0	-1.182423586018295	0	0	0	0	0	0	-0.1196200159586563	0	0	0	0
1.749999999999998	-18.07510379853421	-7.804084479715587	165.107344108509	0	0.93	0	-14.35345319062435	-12.12094834185296	-1.144902401898938	1.276245997187269	0.02227469471631613	-4.964772350981387	0	0	-15.38382915630229	11.96490332193087	5.969499064406626	0.2148649609880492	0.003750101016410627	-4.964772351052422	0	0	0	0	0	0	0	-12.6040738567209	5.012097296447566e-39	2.696266816390726e-39	0	0	0	0	0.4881923138222943	1.690661346817573e-39	0	0	0
1.769230769230767	-27.96477346520166	-7.321396650613906	164.4933601578046	0	0.93	0	-24.26085455463702	-13.89353047803478	-2.364366377919735	1.210896021304352	0.02113412247106034	-4.966712175263887	0	0	-24.59438392508117	14.1293352539558	5.489071951583114	0.4627873178114005	0.008077162432282337	-4.966712175330675	0	0	0	0	0	0	0	-38.62285726153395	0	0	0	0	0	0	-0.6021458293653672	0	0	0	0
1.788461538461537	-12.2526868822342	-27.63988956461846	163.0754312208877	0	0.93	0	-3.793766269751453	-30.08429542227212	-1.544922747269696	0.9519124429399398	0.0166140063200046	-4.972071515275656	0	0	-4.260652725173328	29.84569338946164	6.612441253520153	0.1647554667553153	0.002875525355540311	-4.972071515330924	0	0	0	0	0	0	0	-8.605016026464105	0	6.286823151905344e-39	0	0	0	0	-0.07253366457844725	0	6.945461882057392e-39	0	0
